<svg width="26" height="26" viewBox="0 0 26 26" fill="none" xmlns="http://www.w3.org/2000/svg">
<path d="M23.7481 5.2383H2.01433C1.59388 5.2383 1.23004 5.08872 0.922787 4.78955C0.615538 4.49039 0.461914 4.12654 0.461914 3.69801C0.461914 3.26948 0.611496 2.90159 0.910659 2.59434C1.20982 2.28709 1.57771 2.13347 2.01433 2.13347H9.7764C9.7764 1.71302 9.92598 1.34918 10.2251 1.04193C10.5243 0.734679 10.8922 0.581055 11.3288 0.581055H14.4336C14.8703 0.581055 15.2382 0.734679 15.5373 1.04193C15.8365 1.34918 15.9861 1.71302 15.9861 2.13347H23.7481C24.1686 2.13347 24.5324 2.28709 24.8397 2.59434C25.1469 2.90159 25.3006 3.26948 25.3006 3.69801C25.3006 4.12654 25.1469 4.49039 24.8397 4.78955C24.5324 5.08872 24.1686 5.2383 23.7481 5.2383ZM23.7481 22.3149C23.7481 23.1719 23.4449 23.9037 22.8385 24.5101C22.2321 25.1165 21.5004 25.4197 20.6433 25.4197H5.11916C4.2621 25.4197 3.53036 25.1165 2.92395 24.5101C2.31753 23.9037 2.01433 23.1719 2.01433 22.3149V6.79071H23.7481V22.3149ZM8.22399 11.448C8.22399 11.0275 8.07036 10.6637 7.76312 10.3564C7.45587 10.0492 7.08798 9.89554 6.65945 9.89554C6.23091 9.89554 5.86707 10.0492 5.5679 10.3564C5.26874 10.6637 5.11916 11.0275 5.11916 11.448V20.7624C5.11916 21.1991 5.26874 21.567 5.5679 21.8661C5.86707 22.1653 6.23091 22.3149 6.65945 22.3149C7.08798 22.3149 7.45587 22.1653 7.76312 21.8661C8.07036 21.567 8.22399 21.1991 8.22399 20.7624V11.448ZM14.4336 11.448C14.4336 11.0275 14.28 10.6637 13.9728 10.3564C13.6655 10.0492 13.2976 9.89554 12.8691 9.89554C12.4406 9.89554 12.0767 10.0492 11.7776 10.3564C11.4784 10.6637 11.3288 11.0275 11.3288 11.448V20.7624C11.3288 21.1991 11.4784 21.567 11.7776 21.8661C12.0767 22.1653 12.4406 22.3149 12.8691 22.3149C13.2976 22.3149 13.6655 22.1653 13.9728 21.8661C14.28 21.567 14.4336 21.1991 14.4336 20.7624V11.448ZM20.6433 11.448C20.6433 11.0275 20.4897 10.6637 20.1824 10.3564C19.8752 10.0492 19.5073 9.89554 19.0788 9.89554C18.6502 9.89554 18.2864 10.0492 17.9872 10.3564C17.6881 10.6637 17.5385 11.0275 17.5385 11.448V20.7624C17.5385 21.1991 17.6881 21.567 17.9872 21.8661C18.2864 22.1653 18.6502 22.3149 19.0788 22.3149C19.5073 22.3149 19.8752 22.1653 20.1824 21.8661C20.4897 21.567 20.6433 21.1991 20.6433 20.7624V11.448Z" fill="white"/>
</svg>
